<mxfile host="app.diagrams.net" modified="2023-10-05T03:38:04.592Z" agent="Mozilla/5.0 (Windows NT 10.0; Win64; x64) AppleWebKit/537.36 (KHTML, like Gecko) Chrome/117.0.0.0 Safari/537.36 Edg/117.0.2045.47" version="22.0.0" etag="y5u5Wh1Qzu8ZjtQvvL8K" type="github">
  <diagram name="Page-1" id="nsQ6WgNkk12vu_NQeNwi">
    <mxGraphModel>
      <root>
        <mxCell id="0" />
        <mxCell id="1" parent="0" />
      </root>
    </mxGraphModel>
  </diagram>
</mxfile>
